<?xml version="1.0" encoding="UTF-8"?>
<svg width="30px" height="30px" viewBox="0 0 30 30" version="1.1" xmlns="http://www.w3.org/2000/svg" xmlns:xlink="http://www.w3.org/1999/xlink">
    <!-- Generator: Sketch 54.1 (76490) - https://sketchapp.com -->
    <title>加载</title>
    <desc>Created with Sketch.</desc>
    <g id="phase-2" stroke="none" stroke-width="1" fill="none" fill-rule="evenodd">
        <g id="加载ing" transform="translate(-1208.000000, -499.000000)" fill-rule="nonzero">
            <g id="Rectangle" transform="translate(270.000000, 90.000000)">
                <g id="加载" transform="translate(937.000000, 408.000000)">
                    <rect id="Rectangle" fill="#000000" opacity="0" x="0" y="0" width="32" height="32"></rect>
                    <path d="M23.92425,27.36075 C24.2435,27.89975 24.0635,28.619 23.50625,28.92175 C23.2458462,29.0751976 22.934633,29.1173547 22.6427905,29.0387148 C22.350948,28.9600749 22.1030504,28.7672597 21.955,28.50375 C21.62,27.96525 21.81525,27.26225 22.3545,26.94325 C22.9038193,26.6292732 23.6034924,26.8153624 23.92425,27.36075 L23.92425,27.36075 Z M17.183,29.79725 C17.183,30.41925 16.66825,30.94025 16.02175,30.94025 C15.3911727,30.9386014 14.8803986,30.4278273 14.87875,29.79725 L14.87875,28.996 C14.8798453,28.364787 15.3905409,27.8529744 16.02175,27.8505 C16.6595,27.8505 17.183,28.35775 17.183,28.996 L17.183,29.79725 L17.183,29.79725 Z M10.123,28.50625 C9.97428634,28.7700199 9.72682325,28.9638588 9.43511385,29.0450741 C9.14340444,29.1262895 8.83137529,29.0882198 8.56775,28.93925 L8.55275,28.931 C8.28518745,28.7819299 8.08921178,28.5310708 8.00932368,28.235386 C7.92943559,27.9397011 7.97241411,27.6242814 8.1285,27.36075 L8.9795,25.872 C9.3057199,25.3243301 10.0087725,25.1360956 10.565,25.4475 C11.104,25.7665 11.3015,26.4785 10.9735,27.0175 L10.123,28.50625 L10.123,28.50625 Z M4.646,23.88025 C4.0915,24.19025 3.3795,24.00375 3.076,23.456 C2.7505,22.917 2.937,22.205 3.4845,21.886 L5.773,20.5615 C6.321,20.2585 7.0305,20.4285 7.343,20.98575 C7.653,21.52475 7.464,22.237 6.9185,22.556 L4.646,23.88025 Z M2.2115,17.121 C1.90915288,17.1217967 1.61887274,17.0024533 1.40451844,16.7892242 C1.19016413,16.5759951 1.0692946,16.2863471 1.0685,15.984 L1.0685,15.978 C1.06596994,15.674987 1.18392035,15.3833807 1.39640132,15.1673365 C1.60888229,14.9512923 1.89848686,14.8285091 2.2015,14.826 L5.775,14.826 C6.07734712,14.8252033 6.36762726,14.9445467 6.58198156,15.1577758 C6.79633587,15.3710049 6.9172054,15.6606529 6.918,15.963 L6.918,15.969 C6.92340859,16.599663 6.41666102,17.1153637 5.786,17.121 L2.2115,17.121 Z M3.487,10.052 C2.93,9.742 2.7505,9.039 3.0785,8.491 C3.3815,7.9365 4.0915,7.7475 4.6485,8.0665 L8.52,10.3145 C9.068,10.6265 9.2475,11.327 8.9445,11.8685 C8.62645815,12.4154414 7.92757563,12.6047081 7.377,12.293 L3.487,10.052 Z M8.1285,4.577 L10.8255,9.259 C11.1535,9.807 11.8565,10.002 12.402,9.6765 C12.95,9.3665 13.1295,8.655 12.8105,8.107 L10.1045,3.434 C9.7945,2.8925 9.092,2.6975 8.5525,3.0165 C8.2895686,3.1663119 8.09691984,3.41443823 8.01693532,3.70629265 C7.9369508,3.99814708 7.97618261,4.30982172 8.126,4.57275 L8.1285,4.577 Z M14.879,2.1585 C14.879,1.5365 15.402,1.0065 16.022,1.0065 C16.65975,1.0065 17.18325,1.523 17.18325,2.1585 L17.18325,7.5525 C17.18325,8.19 16.6685,8.7045 16.022,8.7135 C15.7173978,8.7120448 15.4258497,8.58964463 15.2114949,8.37322689 C14.9971401,8.15680915 14.8775378,7.86410219 14.879,7.5595 L14.879,2.1585 L14.879,2.1585 Z M21.939,3.434 C22.2567624,2.88510697 22.9579329,2.69552298 23.509,3.0095 C24.0564159,3.31368546 24.2537181,4.00396337 23.94975,4.5515 L23.93375,4.5795 L21.23,9.2615 C20.925,9.807 20.206,10.0025 19.66025,9.686 C19.112,9.367 18.93275,8.655 19.24275,8.1075 L21.939,3.434 L21.939,3.434 Z M27.43225,8.0665 L22.7405,10.7705 C22.1925,11.0805 22.004,11.783 22.316,12.34 C22.643838,12.8761416 23.3351531,13.0599786 23.886,12.7575 L28.57725,10.054 C28.8377647,9.90369394 29.0278978,9.65605201 29.1058198,9.36555593 C29.1837418,9.07505984 29.1430691,8.76550713 28.99275,8.505 L28.9855,8.493 C28.67375,7.9365 27.969,7.739 27.43225,8.0665 L27.43225,8.0665 Z M29.8415,14.826 C30.1471244,14.8229107 30.4409995,14.9435929 30.6562467,15.1605825 C30.8714939,15.377572 30.9898031,15.6724104 30.98425,15.978 C30.9861787,16.2793076 30.8682972,16.5690328 30.6565531,16.7834026 C30.444809,16.9977724 30.1565585,17.1192154 29.85525,17.121 L24.441,17.121 C23.807992,17.1157953 23.2971228,16.6020274 23.2955,15.969 C23.2955,15.3405 23.819,14.826 24.441,14.826 L29.8415,14.826 L29.8415,14.826 Z" id="Shape" fill="#EE4D2D" opacity="0.448660714"></path>
                </g>
            </g>
        </g>
    </g>
</svg>
